<?xml version="1.0" encoding="utf-8"?>
<!-- Generator: Adobe Illustrator 24.2.0, SVG Export Plug-In . SVG Version: 6.00 Build 0)  -->
<svg version="1.1" id="图层_1" xmlns="http://www.w3.org/2000/svg" xmlns:xlink="http://www.w3.org/1999/xlink" x="0px" y="0px"
	 viewBox="0 0 24 24" style="enable-background:new 0 0 24 24;" xml:space="preserve">
<style type="text/css">
	.st0{fill-rule:evenodd;clip-rule:evenodd;fill:#5C69E8;}
</style>
<path id="icon_password" class="st0" d="M18.3,9.1h-0.7c0-0.1,0.1-0.1,0.1-0.2V5.6C17.6,2.5,15.1,0,12,0c0,0,0,0,0,0
	C8.9,0,6.4,2.5,6.3,5.6v3.3c0,0.1,0,0.1,0.1,0.2H6.3C3.9,9.1,2,11,2,13.3v0.9C2,19.6,6.5,24,12,24c5.5,0,10-4.4,10-9.8v-1.4
	C22,10.8,20.3,9.1,18.3,9.1z M8,8.9V5.6c0-2.2,1.8-4,4-4s4,1.8,4,4l0,0v3.3C16,8.9,16,9,16,9.1H8L8,8.9L8,8.9L8,8.9z M20.2,14.2
	c0,4.5-3.7,8.2-8.2,8.2c0,0,0,0,0,0c-4.5,0-8.2-3.6-8.3-8.1v-0.9c0-1.4,1.2-2.6,2.6-2.6v0.1h12c1.1,0,2.1,0.9,2.1,2L20.2,14.2
	L20.2,14.2L20.2,14.2z M12,13.1c-0.5,0-0.8,0.4-0.8,0.8v3.6c0,0.5,0.4,0.8,0.8,0.8c0.5,0,0.8-0.4,0.8-0.8V14
	C12.8,13.5,12.4,13.2,12,13.1L12,13.1L12,13.1z"/>
</svg>
