<?xml version="1.0" encoding="utf-8"?>
<!-- Generator: Adobe Illustrator 24.2.0, SVG Export Plug-In . SVG Version: 6.00 Build 0)  -->
<svg version="1.1" id="图层_1" xmlns="http://www.w3.org/2000/svg" xmlns:xlink="http://www.w3.org/1999/xlink" x="0px" y="0px"
	 viewBox="0 0 24 24" style="enable-background:new 0 0 24 24;" xml:space="preserve">
<style type="text/css">
	.st0{fill-rule:evenodd;clip-rule:evenodd;fill:#5C69E8;}
</style>
<path class="st0" d="M21.8,19.3L21.8,19.3c0-0.1-0.1-0.1-0.1-0.2c-1-2.2-2.7-4-4.7-5.3c-0.6-0.4-1.1-0.7-1.7-1.1
	c2.1-1.1,3.6-3.4,3.6-6c0-3.7-3-6.8-6.7-6.8c-3.7,0-6.8,3-6.8,6.7c0,3.7,3,6.8,6.7,6.8c0.5,0,0.9-0.1,1.4-0.1
	c0.1,0.1,0.3,0.2,0.4,0.2c2.3,1.1,4.3,2.8,5.8,4.9c0.1,0.1,0.1,0.2,0.2,0.3c0.1,0.2,0.2,0.3,0.3,0.5c0.5,0.8,0.7,1.6,0.8,2.5
	c0,0.5-0.4,0.8-0.9,0.8H3.9c-0.5,0-0.8-0.4-0.9-0.8c0-2,2.3-5.6,4.9-6.8l-0.6-1.3C4.4,15,1.6,19,1.6,21.7c0,1.2,1.1,2.2,2.3,2.2
	h16.2c1.2,0,2.2-1,2.3-2.2C22.3,20.9,22.1,20.1,21.8,19.3z M6.7,6.8c0-3,2.4-5.4,5.4-5.4c3,0,5.4,2.4,5.4,5.4c0,3-2.4,5.4-5.4,5.4
	S6.7,9.8,6.7,6.8z"/>
</svg>
