<?xml version="1.0" encoding="utf-8"?>
<!-- Generator: Adobe Illustrator 24.2.0, SVG Export Plug-In . SVG Version: 6.00 Build 0)  -->
<svg version="1.1" id="图层_1" xmlns="http://www.w3.org/2000/svg" xmlns:xlink="http://www.w3.org/1999/xlink" x="0px" y="0px"
	 viewBox="0 0 60 56" style="enable-background:new 0 0 60 56;" xml:space="preserve">
<style type="text/css">
	.st0{fill-rule:evenodd;clip-rule:evenodd;fill:#5C69E8;}
</style>
<path id="logo" class="st0" d="M45.1,56c0,0-0.1-0.1-0.1-0.1c-1.5-0.1-2.9-0.5-4.2-1.3c-0.9-0.7-1.6-1.3-1.7-1.3c0,0,0-0.1,0-0.1
	l-0.1,0c-0.6-0.7-1.8-2.1-1.9-2.9c-0.3-0.7-0.4-1.4-0.4-2.2c0.1-1,0.1-1.1,0.2-1.5c0.6-1.5,1.4-2.9,2.4-4.1c0,0,0-0.1,0-0.1
	c-2.4-2.7-5.2-5.2-7.8-7.8c-0.3,0.6-0.7,1.1-1.2,1.5c-1.9,1.7-4.7,2-6.9,0.7c0.2,0.7,0.3,1.5,0.2,2.2c-0.1,0.3-0.1,0.5-0.2,0.8
	c-0.3,0.8-0.7,1.5-1.3,2.1c-1.6,1.4-3.8,1.6-5.6,0.6c-0.3,0.2-0.8,0.6-1.9,1.5c-4.5,3.7-8.9,7.3-13.3,10.7c-0.2,0.1-0.4,0-0.5-0.2
	c0-0.1,0-0.1,0-0.2L0.8,54l-0.1,0l1.5-1.5c3.9-4,7.9-7.9,11.9-11.8l0.4-0.4c-0.3-0.7-0.5-1.5-0.4-2.2c-0.1-0.5,0-1.1,0.2-1.6
	c0.1,0,0.2-0.1,0.2-0.2c0.1-0.1,0.2-0.3,0.3-0.4c0.2-0.3,0.5-0.7,0.8-0.9c1.4-1.2,3.3-1.5,5-0.8c-0.2-0.7-0.2-1.3-0.2-2
	c0-0.1,0-0.1,0-0.2c0-0.1,0-0.2,0-0.3c0,0,0-0.1,0-0.1c0.1-1.6,0.8-3,1.9-4.1c0.4-0.3,0.8-0.6,1.3-0.8l-1.1-1.1
	c-6.3-6.4-12.6-12.7-19-19L3,5.9l3.5-3.4c7.1,6.9,14.1,13.9,21.1,20.9c0.2-1.3,0.8-2.5,1.8-3.4c1.4-1.2,3.3-1.7,5.1-1.3
	c-0.4-0.8-0.7-1.7-0.9-2.6c-0.2-1.3-0.1-2.6,0.1-3.8c0.1-0.4,0.4-0.8,0.7-1.1c0.1-0.1,0.2-0.3,0.3-0.4c1.1-1,2.8-0.9,3.9,0.2
	c1,1.1,0.9,2.7-0.1,3.7c0,0,0,0-0.1,0.1c-0.5,0.4-1.1,0.7-1.8,0.7c0,1.3,0.5,2.5,1.4,3.4c1.9-1.7,3.7-3.4,5.5-5.1l0,0
	c0.4-0.7,0.3-1.5-0.2-2.1c-0.8-1-0.8-1.1-0.4-1.3c0.1,0,0.2,0,0.3,0l0.5,0c0.1,0,0.3-0.1,0.3-0.2l0,0c0-0.1-0.1-0.3-0.2-0.3
	c0,0,0,0,0,0l-1.6,0c-0.3,0-0.5-0.2-0.5-0.5l0,0c0-0.2,0.1-0.4,0.3-0.5l0.6,0c0.1,0,0.3-0.1,0.3-0.2l0,0c0-0.1-0.1-0.2-0.3-0.2h-0.3
	l0,0c-0.5,0-1.2,0-2.1-0.1c-0.3,0-0.6-0.2-0.6-0.5l0,0c0-0.3,0.3-0.5,0.6-0.5c0.4,0,0.8,0,1.2,0c0.1,0,0.3-0.1,0.3-0.2l0,0
	c0-0.1-0.1-0.2-0.3-0.2c-1.1,0-2.2-0.1-3.4-0.1c-0.3,0-0.6-0.2-0.7-0.6l0,0c0-0.3,0.3-0.6,0.7-0.5c0.7,0,1.4,0,2.1,0
	c0.1,0,0.3-0.1,0.3-0.2l0,0c0-0.1-0.1-0.2-0.3-0.2l-0.8,0l0,0l-3.6-0.1c-0.4,0-0.7-0.3-0.7-0.6l0,0c0-0.4,0.4-0.6,0.8-0.6L38.5,4
	c0,0,0,0,0,0c0.1,0,0.2,0,0.2,0C38.9,4,39,3.9,39,3.7l0,0c0-0.1-0.1-0.2-0.3-0.2l-3.4-0.1l-0.4,0h0l-1.7,0c-0.4,0-0.8-0.3-0.8-0.7
	l0,0c0-0.4,0.4-0.7,0.8-0.7l4,0.1c0,0,0,0,0,0c0.1,0,0.2-0.1,0.2-0.2c0,0,0,0,0,0l0,0c0-0.1-0.1-0.2-0.3-0.2l-6.3-0.1l-0.3,0
	c-0.5,0-0.8-0.3-0.9-0.8l0,0c0-0.5,0.5-0.8,0.9-0.7l9.9,0.2l0.9,0c0.1,0.1,0.3,0,0.3,0.1c0.6,0.1,1.1,0.2,1.7,0.4
	c2,1,2.6,2.4,2.8,4.6c-0.3,2,0.7,3.9,3,3.6c0-0.1,0-0.1,0-0.2c-0.4-1-0.2-2.2,0.5-2.9c1.1-1,3.2-0.6,4.6,0.9c0,0,0.1,0.1,0.1,0.1
	l0,0l0,0l0,0c0,0,0.1,0.1,0.1,0.1c1.4,1.5,1.6,3.6,0.5,4.6c-0.9,0.7-2.1,0.8-3.1,0.2c-0.1,0-0.1,0-0.2,0c-0.5,2.2,1.4,3.3,3.4,3.3
	c2.2,0.3,3.6,1,4.4,3.1c0.2,0.5,0.3,1.1,0.3,1.7c0.1,0.1,0,0.2,0.1,0.3c0,0.3-0.1,0.6-0.1,0.9l0,0.2c0,0,0,0,0,0
	c0,0.2,0,0.4-0.1,0.6l-0.7,8.7c0,0.5-0.4,0.8-0.8,0.8l0,0c-0.4-0.1-0.8-0.5-0.7-0.9l0-0.3l0.5-6.1c0-0.1-0.1-0.3-0.2-0.3l0,0
	c-0.1,0-0.3,0.1-0.3,0.2c0,0,0,0,0,0c0,0,0,0,0,0c-0.1,1.3-0.2,2.6-0.3,3.9c0,0.4-0.4,0.7-0.8,0.7l0,0c-0.4-0.1-0.7-0.4-0.6-0.8
	c0-0.5,0.1-1.1,0.1-1.6v0c0-0.1,0-0.2,0-0.4c0.1-1.1,0.2-2.2,0.3-3.3c0-0.1-0.1-0.3-0.2-0.3c0,0,0,0,0,0l0,0c-0.1,0-0.3,0.1-0.3,0.2
	c0,0.1,0,0.1,0,0.2c0,0,0,0,0,0c-0.1,0.9-0.1,1.8-0.2,2.7c0,0.4-0.3,0.7-0.7,0.7l0,0c-0.4-0.1-0.6-0.4-0.6-0.8
	c0.1-1.2,0.2-2.4,0.3-3.5l0,0c0-0.2,0-0.5,0.1-0.7c0-0.1-0.1-0.3-0.2-0.3l0,0c-0.1,0-0.2,0.1-0.2,0.2c-0.1,0.7-0.1,1.3-0.2,2
	c0,0.3-0.3,0.6-0.6,0.6l0,0c-0.3,0-0.6-0.4-0.5-0.7c0.1-1.2,0.2-2.2,0.2-3.3c0-0.1-0.1-0.3-0.2-0.3l0,0c-0.1,0-0.2,0.1-0.2,0.2
	c0,0.4-0.1,0.8-0.1,1.2c0,0.3-0.3,0.5-0.6,0.5l0,0c-0.3,0-0.5-0.3-0.5-0.6c0.1-0.9,0.1-1.5,0.1-2.1h0c0-0.1,0-0.2,0-0.3
	c0-0.1-0.1-0.3-0.2-0.3l0,0c-0.1,0-0.2,0.1-0.2,0.2c0,0.2,0,0.4,0,0.6c-0.1,0.2-0.3,0.3-0.5,0.3l0,0c-0.3,0-0.5-0.3-0.4-0.6l0.1-1.5
	c0-0.1-0.1-0.3-0.2-0.3c0,0,0,0,0,0l0,0c-0.1,0-0.2,0.1-0.2,0.2l0,0.5c0,0.1,0,0.2-0.1,0.2c-0.2,0.3-0.4,0.3-1.3-0.5
	c-0.6-0.6-1.4-0.7-2.1-0.4l0,0c-1.5,1.3-3.1,2.6-4.6,4c-0.4,0.3-0.7,0.7-1,1c0.9,1,2.1,1.5,3.4,1.6c0.1-0.6,0.4-1.2,0.9-1.6
	c1.1-1,2.8-0.9,3.9,0.2c1,1.1,0.9,2.7-0.1,3.7c0,0,0,0-0.1,0.1c-0.3,0.2-0.6,0.4-0.9,0.5c-0.2,0.1-0.5,0.2-0.7,0.3
	c-1.3,0.1-2.6,0-3.9-0.2c-0.9-0.3-1.8-0.6-2.6-1.1c0.2,1.8-0.5,3.6-1.9,4.8c-0.9,0.8-1.9,1.2-3.1,1.4c2.5,2.5,4.9,5.1,7.6,7.5
	c1.2-1.2,2.8-2,4.4-2.4c0.5,0,0.9-0.1,1.4-0.1c2.9,0.2,4.5,1.4,6.2,3.7c0.9,1.7,1.4,3.5,1.5,5.4c-0.1,1.7-0.5,3.4-1.4,4.9
	c-1.1,1.8-2.7,3.3-4.5,4.4c0,0-2,0.8-2,0.8c-0.4,0-0.8,0.2-1.1,0.3c0,0,0,0.1-0.1,0.1L45.1,56L45.1,56L45.1,56z M33.5,27.9
	c1,0.3,2.1,0,2.9-0.6c0.7-0.7,1.1-1.6,0.9-2.6C36.1,25.7,34.8,26.8,33.5,27.9L33.5,27.9L33.5,27.9z M34.8,21.8L31,25.2
	c-0.2-1,0.1-2.1,0.9-2.8C32.7,21.7,33.8,21.5,34.8,21.8L34.8,21.8L34.8,21.8z M27,28.8c-1.3,1.2-2.6,2.4-3.9,3.6
	c-0.2-1.1,0.2-2.1,1-2.9C24.9,28.9,26,28.6,27,28.8L27,28.8L27,28.8z M19.3,35.9c-1,0.9-1.9,1.8-2.9,2.7c-0.1-0.8,0.2-1.6,0.8-2.1
	C17.8,36,18.6,35.8,19.3,35.9C19.3,35.9,19.3,35.9,19.3,35.9z M18.3,40.8c1.1-0.9,2.1-1.8,3.2-2.6c0.1,0.8-0.2,1.6-0.8,2.1
	C20,40.8,19.1,41,18.3,40.8L18.3,40.8z M25.3,34.9c1.4-1.2,2.7-2.3,4.1-3.5c0.2,1-0.2,2.1-1,2.8C27.6,34.9,26.4,35.2,25.3,34.9
	L25.3,34.9L25.3,34.9z M44.8,51.9c-2.4,0-3.1,0-4.2-2.2c-0.6-1.9,0-2.6,1.4-3.8c0.9-0.6,1.9-1,2.9-1.2c1.1-0.7,0.8-0.9,0.8-2.2
	c0.2-1.1,0.9-2.9,2.2-3c0.2-0.3,1.3-0.1,1.8,0c0.4,0.2,0.8,0.4,1.1,0.6c1.3,1.2,1.4,2,1.4,3.7c0,0-0.4,2.1-0.4,2.3
	c-0.1,0.1-0.1,0.6-0.6,2.2c-0.1,0.4-0.4,0.9-0.7,1.2c0,0,0,0.1,0,0.1c-0.1,0.1-0.3,0.2-0.3,0.3C48.7,51.1,46.8,51.7,44.8,51.9
	L44.8,51.9L44.8,51.9z M14.3,26.8l-3.2-3.1l2.7-2.8l-2.3-2.4l-2.7,2.7l-3-3.1l2.6-2.7l-2.4-2.4l-2.7,2.7L0,12.4l4.2-4.1l14.2,14.3
	L14.3,26.8L14.3,26.8z M38,12.4c0.2,0.2,0.2,0.5,0,0.7c0,0,0,0,0,0c-0.2,0.2-0.5,0.2-0.7,0c-0.2-0.2-0.2-0.5,0-0.7c0,0,0,0,0,0
	C37.5,12.2,37.8,12.2,38,12.4L38,12.4L38,12.4z M47.3,22.3c0.2,0.2,0.2,0.5,0,0.7c0,0,0,0,0,0c-0.2,0.2-0.5,0.2-0.7,0
	c-0.2-0.2-0.2-0.5,0-0.7c0,0,0,0,0,0C46.7,22.1,47.1,22.1,47.3,22.3C47.3,22.3,47.3,22.3,47.3,22.3z"/>
</svg>
